<svg version="1.1" class="highcharts-root" style="font-family:&quot;Lucida Grande&quot;, &quot;Lucida Sans Unicode&quot;, Arial, Helvetica, sans-serif;font-size:12px;" xmlns="http://www.w3.org/2000/svg" width="230" height="230" viewBox="0 0 690 400" aria-hidden="false" aria-label="Interactive chart"><desc aria-hidden="true">Created with Highcharts 9.3.3</desc><defs aria-hidden="true"><clipPath id="highcharts-z1d1dgi-1-"><rect x="0" y="0" width="613" height="272" fill="none"></rect></clipPath><clipPath id="highcharts-z1d1dgi-7-"><rect x="0" y="0" width="613" height="272" fill="none"></rect></clipPath></defs><rect fill="#ffffff" class="highcharts-background" x="0" y="0" width="690" height="400" rx="0" ry="0" aria-hidden="true"></rect><rect fill="none" class="highcharts-plot-background" x="67" y="53" width="613" height="272" aria-hidden="true"></rect><g class="highcharts-grid highcharts-xaxis-grid" data-z-index="1" aria-hidden="true"><path fill="none" stroke-dasharray="none" data-z-index="1" class="highcharts-grid-line" d="M 189.5 53 L 189.5 325" opacity="1"></path><path fill="none" stroke-dasharray="none" data-z-index="1" class="highcharts-grid-line" d="M 311.5 53 L 311.5 325" opacity="1"></path><path fill="none" stroke-dasharray="none" data-z-index="1" class="highcharts-grid-line" d="M 434.5 53 L 434.5 325" opacity="1"></path><path fill="none" stroke-dasharray="none" data-z-index="1" class="highcharts-grid-line" d="M 556.5 53 L 556.5 325" opacity="1"></path><path fill="none" stroke-dasharray="none" data-z-index="1" class="highcharts-grid-line" d="M 679.5 53 L 679.5 325" opacity="1"></path><path fill="none" stroke-dasharray="none" data-z-index="1" class="highcharts-grid-line" d="M 66.5 53 L 66.5 325" opacity="1"></path></g><g class="highcharts-grid highcharts-yaxis-grid" data-z-index="1" aria-hidden="true"><path fill="none" stroke="#e6e6e6" stroke-width="1" stroke-dasharray="none" data-z-index="1" class="highcharts-grid-line" d="M 67 325.5 L 680 325.5" opacity="1"></path><path fill="none" stroke="#e6e6e6" stroke-width="1" stroke-dasharray="none" data-z-index="1" class="highcharts-grid-line" d="M 67 280.5 L 680 280.5" opacity="1"></path><path fill="none" stroke="#e6e6e6" stroke-width="1" stroke-dasharray="none" data-z-index="1" class="highcharts-grid-line" d="M 67 234.5 L 680 234.5" opacity="1"></path><path fill="none" stroke="#e6e6e6" stroke-width="1" stroke-dasharray="none" data-z-index="1" class="highcharts-grid-line" d="M 67 189.5 L 680 189.5" opacity="1"></path><path fill="none" stroke="#e6e6e6" stroke-width="1" stroke-dasharray="none" data-z-index="1" class="highcharts-grid-line" d="M 67 144.5 L 680 144.5" opacity="1"></path><path fill="none" stroke="#e6e6e6" stroke-width="1" stroke-dasharray="none" data-z-index="1" class="highcharts-grid-line" d="M 67 98.5 L 680 98.5" opacity="1"></path><path fill="none" stroke="#e6e6e6" stroke-width="1" stroke-dasharray="none" data-z-index="1" class="highcharts-grid-line" d="M 67 52.5 L 680 52.5" opacity="1"></path></g><rect fill="none" class="highcharts-plot-border" data-z-index="1" x="67" y="53" width="613" height="272" aria-hidden="true"></rect><g class="highcharts-axis highcharts-xaxis" data-z-index="2" aria-hidden="true"><path fill="none" class="highcharts-axis-line" stroke="#ccd6eb" stroke-width="1" data-z-index="7" d="M 67 325.5 L 680 325.5"></path></g><g class="highcharts-axis highcharts-yaxis" data-z-index="2" aria-hidden="true"><text x="26.04443359375" data-z-index="7" text-anchor="middle" transform="translate(0,0) rotate(270 26.04443359375 189)" class="highcharts-axis-title" style="color:#666666;fill:#666666;" y="189">Number of fruits</text><path fill="none" class="highcharts-axis-line" data-z-index="7" d="M 67 53 L 67 325"></path></g><g class="highcharts-series-group" data-z-index="3" aria-hidden="false"><g class="highcharts-series highcharts-series-0 highcharts-column-series highcharts-color-0 highcharts-tracker" data-z-index="0.1" opacity="1" transform="translate(67,53) scale(1 1)" clip-path="url(#highcharts-z1d1dgi-7-)" aria-hidden="false" role="region" tabindex="-1" aria-label="John, bar series 1 of 4 with 5 bars." style="outline: none;"><rect x="27.5" y="91.5" width="30" height="113" fill="#7cb5ec" stroke="#ffffff" stroke-width="1" opacity="1" class="highcharts-point highcharts-color-0" tabindex="-1" role="img" aria-label="1. Apples, 5. John." style="outline: none;"></rect><rect x="150.5" y="113.5" width="30" height="68" fill="#7cb5ec" stroke="#ffffff" stroke-width="1" opacity="1" class="highcharts-point highcharts-color-0" tabindex="-1" role="img" aria-label="2. Oranges, 3. John." style="outline: none;"></rect><rect x="272.5" y="91.5" width="30" height="90" fill="#7cb5ec" stroke="#ffffff" stroke-width="1" opacity="1" class="highcharts-point highcharts-color-0" tabindex="-1" role="img" aria-label="3. Pears, 4. John." style="outline: none;"></rect><rect x="395.5" y="68.5" width="30" height="159" fill="#7cb5ec" stroke="#ffffff" stroke-width="1" opacity="1" class="highcharts-point highcharts-color-0" tabindex="-1" role="img" aria-label="4. Grapes, 7. John." style="outline: none;"></rect><rect x="518.5" y="113.5" width="30" height="46" fill="#7cb5ec" stroke="#ffffff" stroke-width="1" opacity="1" class="highcharts-point highcharts-color-0" tabindex="-1" role="img" aria-label="5. Bananas, 2. John." style="outline: none;"></rect></g><g class="highcharts-markers highcharts-series-0 highcharts-column-series highcharts-color-0" data-z-index="0.1" opacity="1" transform="translate(67,53) scale(1 1)" clip-path="none" aria-hidden="true"></g><g class="highcharts-series highcharts-series-1 highcharts-column-series highcharts-color-1 highcharts-tracker" data-z-index="0.1" opacity="1" transform="translate(67,53) scale(1 1)" clip-path="url(#highcharts-z1d1dgi-7-)" aria-hidden="false" role="region" tabindex="-1" aria-label="Joe, bar series 2 of 4 with 5 bars." style="outline: none;"><rect x="27.5" y="204.5" width="30" height="68" fill="#434348" stroke="#ffffff" stroke-width="1" opacity="1" class="highcharts-point highcharts-color-1" tabindex="-1" role="img" aria-label="1. Apples, 3. Joe." style="outline: none;"></rect><rect x="150.5" y="181.5" width="30" height="91" fill="#434348" stroke="#ffffff" stroke-width="1" opacity="1" class="highcharts-point highcharts-color-1" tabindex="-1" role="img" aria-label="2. Oranges, 4. Joe." style="outline: none;"></rect><rect x="272.5" y="181.5" width="30" height="91" fill="#434348" stroke="#ffffff" stroke-width="1" opacity="1" class="highcharts-point highcharts-color-1" tabindex="-1" role="img" aria-label="3. Pears, 4. Joe." style="outline: none;"></rect><rect x="395.5" y="227.5" width="30" height="45" fill="#434348" stroke="#ffffff" stroke-width="1" opacity="1" class="highcharts-point highcharts-color-1" tabindex="-1" role="img" aria-label="4. Grapes, 2. Joe." style="outline: none;"></rect><rect x="518.5" y="159.5" width="30" height="113" fill="#434348" stroke="#ffffff" stroke-width="1" opacity="1" class="highcharts-point highcharts-color-1" tabindex="-1" role="img" aria-label="5. Bananas, 5. Joe." style="outline: none;"></rect></g><g class="highcharts-markers highcharts-series-1 highcharts-column-series highcharts-color-1" data-z-index="0.1" opacity="1" transform="translate(67,53) scale(1 1)" clip-path="none" aria-hidden="true"></g><g class="highcharts-series highcharts-series-2 highcharts-column-series highcharts-color-2 highcharts-tracker" data-z-index="0.1" opacity="1" transform="translate(67,53) scale(1 1)" clip-path="url(#highcharts-z1d1dgi-7-)" aria-hidden="false" role="region" tabindex="-1" aria-label="Jane, bar series 3 of 4 with 5 bars." style="outline: none;"><rect x="64.5" y="159.5" width="30" height="45" fill="#90ed7d" stroke="#ffffff" stroke-width="1" opacity="1" class="highcharts-point highcharts-color-2" tabindex="-1" role="img" aria-label="1. Apples, 2. Jane." style="outline: none;"></rect><rect x="187.5" y="159.5" width="30" height="113" fill="#90ed7d" stroke="#ffffff" stroke-width="1" opacity="1" class="highcharts-point highcharts-color-2" tabindex="-1" role="img" aria-label="2. Oranges, 5. Jane." style="outline: none;"></rect><rect x="309.5" y="45.5" width="30" height="136" fill="#90ed7d" stroke="#ffffff" stroke-width="1" opacity="1" class="highcharts-point highcharts-color-2" tabindex="-1" role="img" aria-label="3. Pears, 6. Jane." style="outline: none;"></rect><rect x="432.5" y="136.5" width="30" height="45" fill="#90ed7d" stroke="#ffffff" stroke-width="1" opacity="1" class="highcharts-point highcharts-color-2" tabindex="-1" role="img" aria-label="4. Grapes, 2. Jane." style="outline: none;"></rect><rect x="554.5" y="181.5" width="30" height="23" fill="#90ed7d" stroke="#ffffff" stroke-width="1" opacity="1" class="highcharts-point highcharts-color-2" tabindex="-1" role="img" aria-label="5. Bananas, 1. Jane." style="outline: none;"></rect></g><g class="highcharts-markers highcharts-series-2 highcharts-column-series highcharts-color-2" data-z-index="0.1" opacity="1" transform="translate(67,53) scale(1 1)" clip-path="none" aria-hidden="true"></g><g class="highcharts-series highcharts-series-3 highcharts-column-series highcharts-color-3 highcharts-tracker" data-z-index="0.1" opacity="1" transform="translate(67,53) scale(1 1)" clip-path="url(#highcharts-z1d1dgi-7-)" aria-hidden="false" role="region" tabindex="-1" aria-label="Janet, bar series 4 of 4 with 5 bars." style="outline: none;"><rect x="64.5" y="204.5" width="30" height="68" fill="#f7a35c" stroke="#ffffff" stroke-width="1" opacity="1" class="highcharts-point highcharts-color-3" tabindex="-1" role="img" aria-label="1. Apples, 3. Janet." style="outline: none;"></rect><rect x="187.5" y="272.5" width="30" height="0" fill="#f7a35c" stroke="#ffffff" stroke-width="1" opacity="1" class="highcharts-point highcharts-color-3" tabindex="-1" role="img" aria-label="2. Oranges, 0. Janet." style="outline: none;"></rect><rect x="309.5" y="181.5" width="30" height="91" fill="#f7a35c" stroke="#ffffff" stroke-width="1" opacity="1" class="highcharts-point highcharts-color-3" tabindex="-1" role="img" aria-label="3. Pears, 4. Janet." style="outline: none;"></rect><rect x="432.5" y="181.5" width="30" height="91" fill="#f7a35c" stroke="#ffffff" stroke-width="1" opacity="1" class="highcharts-point highcharts-color-3" tabindex="-1" role="img" aria-label="4. Grapes, 4. Janet." style="outline: none;"></rect><rect x="554.5" y="204.5" width="30" height="68" fill="#f7a35c" stroke="#ffffff" stroke-width="1" opacity="1" class="highcharts-point highcharts-color-3" tabindex="-1" role="img" aria-label="5. Bananas, 3. Janet." style="outline: none;"></rect></g><g class="highcharts-markers highcharts-series-3 highcharts-column-series highcharts-color-3" data-z-index="0.1" opacity="1" transform="translate(67,53) scale(1 1)" clip-path="none" aria-hidden="true"></g></g><g class="highcharts-exporting-group" data-z-index="3" aria-hidden="true"><g class="highcharts-no-tooltip highcharts-button highcharts-contextbutton" stroke-linecap="round" style="cursor:pointer;" transform="translate(656,10)"><title>Chart context menu</title><rect fill="#ffffff" class="highcharts-button-box" x="0.5" y="0.5" width="24" height="22" rx="2" ry="2" stroke="none" stroke-width="1"></rect><path fill="#666666" d="M 6 6.5 L 20 6.5 M 6 11.5 L 20 11.5 M 6 16.5 L 20 16.5" class="highcharts-button-symbol" data-z-index="1" stroke="#666666" stroke-width="3"></path><text x="0" data-z-index="1" y="15.5" style="color:#333333;font-weight:normal;fill:#333333;"></text></g></g><text x="345" text-anchor="middle" class="highcharts-title" data-z-index="4" style="color:#333333;font-size:18px;fill:#333333;" y="24" aria-hidden="true">Total fruit consumption, grouped by gender</text><text x="345" text-anchor="middle" class="highcharts-subtitle" data-z-index="4" style="color:#666666;fill:#666666;" y="52" aria-hidden="true"></text><text x="10" text-anchor="start" class="highcharts-caption" data-z-index="4" style="color:#666666;fill:#666666;" y="397" aria-hidden="true"></text><g class="highcharts-legend highcharts-no-tooltip" data-z-index="7" transform="translate(208,359)" aria-hidden="true"><rect fill="none" class="highcharts-legend-box" rx="0" ry="0" x="0" y="0" width="273" height="26" visibility="visible"></rect><g data-z-index="1"><g><g class="highcharts-legend-item highcharts-column-series highcharts-color-0 highcharts-series-0" data-z-index="1" transform="translate(8,3)"><text x="21" style="color:#333333;cursor:pointer;font-size:12px;font-weight:bold;fill:#333333;" text-anchor="start" data-z-index="2" y="15">John</text><rect x="2" y="4" width="12" height="12" fill="#7cb5ec" rx="6" ry="6" class="highcharts-point" data-z-index="3"></rect></g><g class="highcharts-legend-item highcharts-column-series highcharts-color-1 highcharts-series-1" data-z-index="1" transform="translate(78.55078125,3)"><text x="21" y="15" style="color:#333333;cursor:pointer;font-size:12px;font-weight:bold;fill:#333333;" text-anchor="start" data-z-index="2">Joe</text><rect x="2" y="4" width="12" height="12" fill="#434348" rx="6" ry="6" class="highcharts-point" data-z-index="3"></rect></g><g class="highcharts-legend-item highcharts-column-series highcharts-color-2 highcharts-series-2" data-z-index="1" transform="translate(141.654296875,3)"><text x="21" y="15" style="color:#333333;cursor:pointer;font-size:12px;font-weight:bold;fill:#333333;" text-anchor="start" data-z-index="2">Jane</text><rect x="2" y="4" width="12" height="12" fill="#90ed7d" rx="6" ry="6" class="highcharts-point" data-z-index="3"></rect></g><g class="highcharts-legend-item highcharts-column-series highcharts-color-3 highcharts-series-3" data-z-index="1" transform="translate(211.4609375,3)"><text x="21" y="15" style="color:#333333;cursor:pointer;font-size:12px;font-weight:bold;fill:#333333;" text-anchor="start" data-z-index="2">Janet</text><rect x="2" y="4" width="12" height="12" fill="#f7a35c" rx="6" ry="6" class="highcharts-point" data-z-index="3"></rect></g></g></g></g><g class="highcharts-axis-labels highcharts-xaxis-labels" data-z-index="7" aria-hidden="true"><text x="128.3" style="color:#666666;cursor:default;font-size:11px;fill:#666666;" text-anchor="middle" transform="translate(0,0)" y="344" opacity="1">Apples</text><text x="250.89999999999998" style="color:#666666;cursor:default;font-size:11px;fill:#666666;" text-anchor="middle" transform="translate(0,0)" y="344" opacity="1">Oranges</text><text x="373.5" style="color:#666666;cursor:default;font-size:11px;fill:#666666;" text-anchor="middle" transform="translate(0,0)" y="344" opacity="1">Pears</text><text x="496.09999999999997" style="color:#666666;cursor:default;font-size:11px;fill:#666666;" text-anchor="middle" transform="translate(0,0)" y="344" opacity="1">Grapes</text><text x="618.7" style="color:#666666;cursor:default;font-size:11px;fill:#666666;" text-anchor="middle" transform="translate(0,0)" y="344" opacity="1">Bananas</text></g><g class="highcharts-axis-labels highcharts-yaxis-labels" data-z-index="7" aria-hidden="true"><text x="52" style="color:#666666;cursor:default;font-size:11px;fill:#666666;" text-anchor="end" transform="translate(0,0)" y="329" opacity="1">0</text><text x="52" style="color:#666666;cursor:default;font-size:11px;fill:#666666;" text-anchor="end" transform="translate(0,0)" y="284" opacity="1">2</text><text x="52" style="color:#666666;cursor:default;font-size:11px;fill:#666666;" text-anchor="end" transform="translate(0,0)" y="238" opacity="1">4</text><text x="52" style="color:#666666;cursor:default;font-size:11px;fill:#666666;" text-anchor="end" transform="translate(0,0)" y="193" opacity="1">6</text><text x="52" style="color:#666666;cursor:default;font-size:11px;fill:#666666;" text-anchor="end" transform="translate(0,0)" y="148" opacity="1">8</text><text x="52" style="color:#666666;cursor:default;font-size:11px;fill:#666666;" text-anchor="end" transform="translate(0,0)" y="102" opacity="1">10</text><text x="52" style="color:#666666;cursor:default;font-size:11px;fill:#666666;" text-anchor="end" transform="translate(0,0)" y="57" opacity="1">12</text></g><text x="680" class="highcharts-credits" text-anchor="end" data-z-index="8" style="cursor:pointer;color:#999999;font-size:9px;fill:#999999;" y="395" aria-label="Chart credits: Highcharts.com" aria-hidden="false">Highcharts.com</text><g class="highcharts-label highcharts-tooltip highcharts-color-2" style="cursor:default;white-space:nowrap;pointer-events:none;" data-z-index="8" transform="translate(415,-9999)" opacity="0" visibility="hidden" aria-hidden="true"><path fill="none" class="highcharts-label-box highcharts-tooltip-box highcharts-shadow" d="M 3.5 0.5 L 68.5 0.5 C 71.5 0.5 71.5 0.5 71.5 3.5 L 71.5 61.5 C 71.5 64.5 71.5 64.5 68.5 64.5 L 40.5 64.5 L 34.5 70.5 L 28.5 64.5 L 3.5 64.5 C 0.5 64.5 0.5 64.5 0.5 61.5 L 0.5 3.5 C 0.5 0.5 0.5 0.5 3.5 0.5" stroke="#000000" stroke-opacity="0.049999999999999996" stroke-width="5" transform="translate(1, 1)"></path><path fill="none" class="highcharts-label-box highcharts-tooltip-box highcharts-shadow" d="M 3.5 0.5 L 68.5 0.5 C 71.5 0.5 71.5 0.5 71.5 3.5 L 71.5 61.5 C 71.5 64.5 71.5 64.5 68.5 64.5 L 40.5 64.5 L 34.5 70.5 L 28.5 64.5 L 3.5 64.5 C 0.5 64.5 0.5 64.5 0.5 61.5 L 0.5 3.5 C 0.5 0.5 0.5 0.5 3.5 0.5" stroke="#000000" stroke-opacity="0.09999999999999999" stroke-width="3" transform="translate(1, 1)"></path><path fill="none" class="highcharts-label-box highcharts-tooltip-box highcharts-shadow" d="M 3.5 0.5 L 68.5 0.5 C 71.5 0.5 71.5 0.5 71.5 3.5 L 71.5 61.5 C 71.5 64.5 71.5 64.5 68.5 64.5 L 40.5 64.5 L 34.5 70.5 L 28.5 64.5 L 3.5 64.5 C 0.5 64.5 0.5 64.5 0.5 61.5 L 0.5 3.5 C 0.5 0.5 0.5 0.5 3.5 0.5" stroke="#000000" stroke-opacity="0.15" stroke-width="1" transform="translate(1, 1)"></path><path fill="rgba(247,247,247,0.85)" class="highcharts-label-box highcharts-tooltip-box" d="M 3.5 0.5 L 68.5 0.5 C 71.5 0.5 71.5 0.5 71.5 3.5 L 71.5 61.5 C 71.5 64.5 71.5 64.5 68.5 64.5 L 40.5 64.5 L 34.5 70.5 L 28.5 64.5 L 3.5 64.5 C 0.5 64.5 0.5 64.5 0.5 61.5 L 0.5 3.5 C 0.5 0.5 0.5 0.5 3.5 0.5" stroke="#90ed7d" stroke-width="1"></path><text x="8" data-z-index="1" y="20" style="color:#333333;font-size:12px;fill:#333333;"><tspan style="font-weight:bold;">Pears</tspan><tspan class="highcharts-br" dy="15" x="8"></tspan>Jane: 6<tspan class="highcharts-br" dy="15" x="8"></tspan>Total: 10</text></g></svg>