<svg version="1.1" class="highcharts-root" style="font-family:&quot;Lucida Grande&quot;, &quot;Lucida Sans Unicode&quot;, Arial, Helvetica, sans-serif;font-size:12px;" xmlns="http://www.w3.org/2000/svg" width="230" height="230" viewBox="0 0 690 400" aria-hidden="false" aria-label="Interactive chart"><desc aria-hidden="true">Created with Highcharts 9.3.3</desc><defs aria-hidden="true"><clipPath id="highcharts-eu2kje4-1-"><rect x="0" y="0" width="606" height="254" fill="none"></rect></clipPath><clipPath id="highcharts-eu2kje4-14-"><rect x="0" y="0" width="606" height="254" fill="none"></rect></clipPath></defs><rect fill="#ffffff" class="highcharts-background" x="0" y="0" width="690" height="400" rx="0" ry="0" aria-hidden="true"></rect><rect fill="none" class="highcharts-plot-background" x="74" y="71" width="606" height="254" aria-hidden="true"></rect><g class="highcharts-grid highcharts-xaxis-grid" data-z-index="1" aria-hidden="true"><path fill="none" stroke-dasharray="none" data-z-index="1" class="highcharts-grid-line" d="M 124.5 71 L 124.5 325" opacity="1"></path><path fill="none" stroke-dasharray="none" data-z-index="1" class="highcharts-grid-line" d="M 174.5 71 L 174.5 325" opacity="1"></path><path fill="none" stroke-dasharray="none" data-z-index="1" class="highcharts-grid-line" d="M 225.5 71 L 225.5 325" opacity="1"></path><path fill="none" stroke-dasharray="none" data-z-index="1" class="highcharts-grid-line" d="M 275.5 71 L 275.5 325" opacity="1"></path><path fill="none" stroke-dasharray="none" data-z-index="1" class="highcharts-grid-line" d="M 326.5 71 L 326.5 325" opacity="1"></path><path fill="none" stroke-dasharray="none" data-z-index="1" class="highcharts-grid-line" d="M 376.5 71 L 376.5 325" opacity="1"></path><path fill="none" stroke-dasharray="none" data-z-index="1" class="highcharts-grid-line" d="M 427.5 71 L 427.5 325" opacity="1"></path><path fill="none" stroke-dasharray="none" data-z-index="1" class="highcharts-grid-line" d="M 477.5 71 L 477.5 325" opacity="1"></path><path fill="none" stroke-dasharray="none" data-z-index="1" class="highcharts-grid-line" d="M 528.5 71 L 528.5 325" opacity="1"></path><path fill="none" stroke-dasharray="none" data-z-index="1" class="highcharts-grid-line" d="M 578.5 71 L 578.5 325" opacity="1"></path><path fill="none" stroke-dasharray="none" data-z-index="1" class="highcharts-grid-line" d="M 629.5 71 L 629.5 325" opacity="1"></path><path fill="none" stroke-dasharray="none" data-z-index="1" class="highcharts-grid-line" d="M 679.5 71 L 679.5 325" opacity="1"></path><path fill="none" stroke-dasharray="none" data-z-index="1" class="highcharts-grid-line" d="M 73.5 71 L 73.5 325" opacity="1"></path></g><g class="highcharts-grid highcharts-yaxis-grid" data-z-index="1" aria-hidden="true"><path fill="none" stroke="#e6e6e6" stroke-width="1" stroke-dasharray="none" data-z-index="1" class="highcharts-grid-line" d="M 74 325.5 L 680 325.5" opacity="1"></path><path fill="none" stroke="#e6e6e6" stroke-width="1" stroke-dasharray="none" data-z-index="1" class="highcharts-grid-line" d="M 74 274.5 L 680 274.5" opacity="1"></path><path fill="none" stroke="#e6e6e6" stroke-width="1" stroke-dasharray="none" data-z-index="1" class="highcharts-grid-line" d="M 74 223.5 L 680 223.5" opacity="1"></path><path fill="none" stroke="#e6e6e6" stroke-width="1" stroke-dasharray="none" data-z-index="1" class="highcharts-grid-line" d="M 74 173.5 L 680 173.5" opacity="1"></path><path fill="none" stroke="#e6e6e6" stroke-width="1" stroke-dasharray="none" data-z-index="1" class="highcharts-grid-line" d="M 74 122.5 L 680 122.5" opacity="1"></path><path fill="none" stroke="#e6e6e6" stroke-width="1" stroke-dasharray="none" data-z-index="1" class="highcharts-grid-line" d="M 74 70.5 L 680 70.5" opacity="1"></path></g><rect fill="none" class="highcharts-plot-border" data-z-index="1" x="74" y="71" width="606" height="254" aria-hidden="true"></rect><g class="highcharts-axis highcharts-xaxis" data-z-index="2" aria-hidden="true"><path fill="none" class="highcharts-axis-line" stroke="#ccd6eb" stroke-width="1" data-z-index="7" d="M 74 325.5 L 680 325.5"></path></g><g class="highcharts-axis highcharts-yaxis" data-z-index="2" aria-hidden="true"><text x="26.0888671875" data-z-index="7" text-anchor="middle" transform="translate(0,0) rotate(270 26.0888671875 198)" class="highcharts-axis-title" style="color:#666666;fill:#666666;" y="198">Rainfall (mm)</text><path fill="none" class="highcharts-axis-line" data-z-index="7" d="M 74 71 L 74 325"></path></g><path fill="none" class="highcharts-crosshair highcharts-crosshair-category" data-z-index="2" stroke="rgba(204,214,235,0.25)" stroke-width="59.666666666666664" style="pointer-events:none;" visibility="hidden" d="M 342.5 71 L 342.5 325" aria-hidden="true"></path><g class="highcharts-series-group" data-z-index="3" aria-hidden="false"><g class="highcharts-series highcharts-series-0 highcharts-column-series highcharts-color-0 highcharts-tracker" data-z-index="0.1" opacity="1" transform="translate(74,71) scale(1 1)" clip-path="url(#highcharts-eu2kje4-14-)" aria-hidden="false" role="region" tabindex="-1" aria-label="Tokyo, bar series 1 of 4 with 12 bars." style="outline: none;"><rect x="12" y="204" width="5" height="51" fill="#7cb5ec" opacity="1" class="highcharts-point highcharts-color-0" tabindex="-1" role="img" aria-label="1. Jan, 49.9. Tokyo." style="outline: none;"></rect><rect x="62" y="182" width="5" height="73" fill="#7cb5ec" opacity="1" class="highcharts-point highcharts-color-0" tabindex="-1" role="img" aria-label="2. Feb, 71.5. Tokyo." style="outline: none;"></rect><rect x="113" y="147" width="5" height="108" fill="#7cb5ec" opacity="1" class="highcharts-point highcharts-color-0" tabindex="-1" role="img" aria-label="3. Mar, 106.4. Tokyo." style="outline: none;"></rect><rect x="163" y="124" width="5" height="131" fill="#7cb5ec" opacity="1" class="highcharts-point highcharts-color-0" tabindex="-1" role="img" aria-label="4. Apr, 129.2. Tokyo." style="outline: none;"></rect><rect x="214" y="109" width="5" height="146" fill="#7cb5ec" opacity="1" class="highcharts-point highcharts-color-0" tabindex="-1" role="img" aria-label="5. May, 144. Tokyo." style="outline: none;"></rect><rect x="264" y="76" width="5" height="179" fill="#7cb5ec" opacity="1" class="highcharts-point highcharts-color-0" tabindex="-1" role="img" aria-label="6. Jun, 176. Tokyo." style="outline: none;"></rect><rect x="315" y="117" width="5" height="138" fill="#7cb5ec" opacity="1" class="highcharts-point highcharts-color-0" tabindex="-1" role="img" aria-label="7. Jul, 135.6. Tokyo." style="outline: none;"></rect><rect x="365" y="104" width="5" height="151" fill="#7cb5ec" opacity="1" class="highcharts-point highcharts-color-0" tabindex="-1" role="img" aria-label="8. Aug, 148.5. Tokyo." style="outline: none;"></rect><rect x="416" y="35" width="5" height="220" fill="#7cb5ec" opacity="1" class="highcharts-point highcharts-color-0" tabindex="-1" role="img" aria-label="9. Sep, 216.4. Tokyo." style="outline: none;"></rect><rect x="466" y="58" width="5" height="197" fill="#7cb5ec" opacity="1" class="highcharts-point highcharts-color-0" tabindex="-1" role="img" aria-label="10. Oct, 194.1. Tokyo." style="outline: none;"></rect><rect x="517" y="158" width="5" height="97" fill="#7cb5ec" opacity="1" class="highcharts-point highcharts-color-0" tabindex="-1" role="img" aria-label="11. Nov, 95.6. Tokyo." style="outline: none;"></rect><rect x="567" y="200" width="5" height="55" fill="#7cb5ec" opacity="1" class="highcharts-point highcharts-color-0" tabindex="-1" role="img" aria-label="12. Dec, 54.4. Tokyo." style="outline: none;"></rect></g><g class="highcharts-markers highcharts-series-0 highcharts-column-series highcharts-color-0" data-z-index="0.1" opacity="1" transform="translate(74,71) scale(1 1)" clip-path="none" aria-hidden="true"></g><g class="highcharts-series highcharts-series-1 highcharts-column-series highcharts-color-1 highcharts-tracker" data-z-index="0.1" opacity="1" transform="translate(74,71) scale(1 1)" clip-path="url(#highcharts-eu2kje4-14-)" aria-hidden="false" role="region" tabindex="-1" aria-label="New York, bar series 2 of 4 with 12 bars." style="outline: none;"><rect x="19" y="170" width="5" height="85" fill="#434348" opacity="1" class="highcharts-point highcharts-color-1" tabindex="-1" role="img" aria-label="1. Jan, 83.6. New York." style="outline: none;"></rect><rect x="70" y="175" width="5" height="80" fill="#434348" opacity="1" class="highcharts-point highcharts-color-1" tabindex="-1" role="img" aria-label="2. Feb, 78.8. New York." style="outline: none;"></rect><rect x="120" y="155" width="5" height="100" fill="#434348" opacity="1" class="highcharts-point highcharts-color-1" tabindex="-1" role="img" aria-label="3. Mar, 98.5. New York." style="outline: none;"></rect><rect x="171" y="160" width="5" height="95" fill="#434348" opacity="1" class="highcharts-point highcharts-color-1" tabindex="-1" role="img" aria-label="4. Apr, 93.4. New York." style="outline: none;"></rect><rect x="221" y="147" width="5" height="108" fill="#434348" opacity="1" class="highcharts-point highcharts-color-1" tabindex="-1" role="img" aria-label="5. May, 106. New York." style="outline: none;"></rect><rect x="272" y="169" width="5" height="86" fill="#434348" opacity="1" class="highcharts-point highcharts-color-1" tabindex="-1" role="img" aria-label="6. Jun, 84.5. New York." style="outline: none;"></rect><rect x="322" y="148" width="5" height="107" fill="#434348" opacity="1" class="highcharts-point highcharts-color-1" tabindex="-1" role="img" aria-label="7. Jul, 105. New York." style="outline: none;"></rect><rect x="373" y="149" width="5" height="106" fill="#434348" opacity="1" class="highcharts-point highcharts-color-1" tabindex="-1" role="img" aria-label="8. Aug, 104.3. New York." style="outline: none;"></rect><rect x="423" y="162" width="5" height="93" fill="#434348" opacity="1" class="highcharts-point highcharts-color-1" tabindex="-1" role="img" aria-label="9. Sep, 91.2. New York." style="outline: none;"></rect><rect x="474" y="170" width="5" height="85" fill="#434348" opacity="1" class="highcharts-point highcharts-color-1" tabindex="-1" role="img" aria-label="10. Oct, 83.5. New York." style="outline: none;"></rect><rect x="524" y="147" width="5" height="108" fill="#434348" opacity="1" class="highcharts-point highcharts-color-1" tabindex="-1" role="img" aria-label="11. Nov, 106.6. New York." style="outline: none;"></rect><rect x="575" y="161" width="5" height="94" fill="#434348" opacity="1" class="highcharts-point highcharts-color-1" tabindex="-1" role="img" aria-label="12. Dec, 92.3. New York." style="outline: none;"></rect></g><g class="highcharts-markers highcharts-series-1 highcharts-column-series highcharts-color-1" data-z-index="0.1" opacity="1" transform="translate(74,71) scale(1 1)" clip-path="none" aria-hidden="true"></g><g class="highcharts-series highcharts-series-2 highcharts-column-series highcharts-color-2 highcharts-tracker" data-z-index="0.1" opacity="1" transform="translate(74,71) scale(1 1)" clip-path="url(#highcharts-eu2kje4-14-)" aria-hidden="false" role="region" tabindex="-1" aria-label="London, bar series 3 of 4 with 12 bars." style="outline: none;"><rect x="27" y="205" width="5" height="50" fill="#90ed7d" opacity="1" class="highcharts-point highcharts-color-2" tabindex="-1" role="img" aria-label="1. Jan, 48.9. London." style="outline: none;"></rect><rect x="77" y="216" width="5" height="39" fill="#90ed7d" opacity="1" class="highcharts-point highcharts-color-2" tabindex="-1" role="img" aria-label="2. Feb, 38.8. London." style="outline: none;"></rect><rect x="128" y="215" width="5" height="40" fill="#90ed7d" opacity="1" class="highcharts-point highcharts-color-2" tabindex="-1" role="img" aria-label="3. Mar, 39.3. London." style="outline: none;"></rect><rect x="178" y="213" width="5" height="42" fill="#90ed7d" opacity="1" class="highcharts-point highcharts-color-2" tabindex="-1" role="img" aria-label="4. Apr, 41.4. London." style="outline: none;"></rect><rect x="229" y="207" width="5" height="48" fill="#90ed7d" opacity="1" class="highcharts-point highcharts-color-2" tabindex="-1" role="img" aria-label="5. May, 47. London." style="outline: none;"></rect><rect x="279" y="206" width="5" height="49" fill="#90ed7d" opacity="1" class="highcharts-point highcharts-color-2" tabindex="-1" role="img" aria-label="6. Jun, 48.3. London." style="outline: none;"></rect><rect x="330" y="195" width="5" height="60" fill="#90ed7d" opacity="1" class="highcharts-point highcharts-color-2" tabindex="-1" role="img" aria-label="7. Jul, 59. London." style="outline: none;"></rect><rect x="380" y="194" width="5" height="61" fill="#90ed7d" opacity="1" class="highcharts-point highcharts-color-2" tabindex="-1" role="img" aria-label="8. Aug, 59.6. London." style="outline: none;"></rect><rect x="431" y="202" width="5" height="53" fill="#90ed7d" opacity="1" class="highcharts-point highcharts-color-2" tabindex="-1" role="img" aria-label="9. Sep, 52.4. London." style="outline: none;"></rect><rect x="481" y="189" width="5" height="66" fill="#90ed7d" opacity="1" class="highcharts-point highcharts-color-2" tabindex="-1" role="img" aria-label="10. Oct, 65.2. London." style="outline: none;"></rect><rect x="532" y="195" width="5" height="60" fill="#90ed7d" opacity="1" class="highcharts-point highcharts-color-2" tabindex="-1" role="img" aria-label="11. Nov, 59.3. London." style="outline: none;"></rect><rect x="582" y="203" width="5" height="52" fill="#90ed7d" opacity="1" class="highcharts-point highcharts-color-2" tabindex="-1" role="img" aria-label="12. Dec, 51.2. London." style="outline: none;"></rect></g><g class="highcharts-markers highcharts-series-2 highcharts-column-series highcharts-color-2" data-z-index="0.1" opacity="1" transform="translate(74,71) scale(1 1)" clip-path="none" aria-hidden="true"></g><g class="highcharts-series highcharts-series-3 highcharts-column-series highcharts-color-3 highcharts-tracker" data-z-index="0.1" opacity="1" transform="translate(74,71) scale(1 1)" clip-path="url(#highcharts-eu2kje4-14-)" aria-hidden="false" role="region" tabindex="-1" aria-label="Berlin, bar series 4 of 4 with 12 bars." style="outline: none;"><rect x="34" y="212" width="5" height="43" fill="#f7a35c" opacity="1" class="highcharts-point highcharts-color-3" tabindex="-1" role="img" aria-label="1. Jan, 42.4. Berlin." style="outline: none;"></rect><rect x="85" y="221" width="5" height="34" fill="#f7a35c" opacity="1" class="highcharts-point highcharts-color-3" tabindex="-1" role="img" aria-label="2. Feb, 33.2. Berlin." style="outline: none;"></rect><rect x="135" y="220" width="5" height="35" fill="#f7a35c" opacity="1" class="highcharts-point highcharts-color-3" tabindex="-1" role="img" aria-label="3. Mar, 34.5. Berlin." style="outline: none;"></rect><rect x="186" y="215" width="5" height="40" fill="#f7a35c" opacity="1" class="highcharts-point highcharts-color-3" tabindex="-1" role="img" aria-label="4. Apr, 39.7. Berlin." style="outline: none;"></rect><rect x="236" y="202" width="5" height="53" fill="#f7a35c" opacity="1" class="highcharts-point highcharts-color-3" tabindex="-1" role="img" aria-label="5. May, 52.6. Berlin." style="outline: none;"></rect><rect x="287" y="178" width="5" height="77" fill="#f7a35c" opacity="1" class="highcharts-point highcharts-color-3" tabindex="-1" role="img" aria-label="6. Jun, 75.5. Berlin." style="outline: none;"></rect><rect x="337" y="197" width="5" height="58" fill="#f7a35c" opacity="1" class="highcharts-point highcharts-color-3" tabindex="-1" role="img" aria-label="7. Jul, 57.4. Berlin." style="outline: none;"></rect><rect x="388" y="194" width="5" height="61" fill="#f7a35c" opacity="1" class="highcharts-point highcharts-color-3" tabindex="-1" role="img" aria-label="8. Aug, 60.4. Berlin." style="outline: none;"></rect><rect x="438" y="207" width="5" height="48" fill="#f7a35c" opacity="1" class="highcharts-point highcharts-color-3" tabindex="-1" role="img" aria-label="9. Sep, 47.6. Berlin." style="outline: none;"></rect><rect x="489" y="215" width="5" height="40" fill="#f7a35c" opacity="1" class="highcharts-point highcharts-color-3" tabindex="-1" role="img" aria-label="10. Oct, 39.1. Berlin." style="outline: none;"></rect><rect x="539" y="207" width="5" height="48" fill="#f7a35c" opacity="1" class="highcharts-point highcharts-color-3" tabindex="-1" role="img" aria-label="11. Nov, 46.8. Berlin." style="outline: none;"></rect><rect x="590" y="203" width="5" height="52" fill="#f7a35c" opacity="1" class="highcharts-point highcharts-color-3" tabindex="-1" role="img" aria-label="12. Dec, 51.1. Berlin." style="outline: none;"></rect></g><g class="highcharts-markers highcharts-series-3 highcharts-column-series highcharts-color-3" data-z-index="0.1" opacity="1" transform="translate(74,71) scale(1 1)" clip-path="none" aria-hidden="true"></g></g><g class="highcharts-exporting-group" data-z-index="3" aria-hidden="true"><g class="highcharts-no-tooltip highcharts-button highcharts-contextbutton" stroke-linecap="round" style="cursor:pointer;" transform="translate(656,10)"><title>Chart context menu</title><rect fill="#ffffff" class="highcharts-button-box" x="0.5" y="0.5" width="24" height="22" rx="2" ry="2" stroke="none" stroke-width="1"></rect><path fill="#666666" d="M 6 6.5 L 20 6.5 M 6 11.5 L 20 11.5 M 6 16.5 L 20 16.5" class="highcharts-button-symbol" data-z-index="1" stroke="#666666" stroke-width="3"></path><text x="0" data-z-index="1" y="15.5" style="color:#333333;font-weight:normal;fill:#333333;"></text></g></g><text x="345" text-anchor="middle" class="highcharts-title" data-z-index="4" style="color:#333333;font-size:18px;fill:#333333;" y="24" aria-hidden="true">Monthly Average Rainfall</text><text x="345" text-anchor="middle" class="highcharts-subtitle" data-z-index="4" style="color:#666666;fill:#666666;" y="52" aria-hidden="true">Source: WorldClimate.com</text><text x="10" text-anchor="start" class="highcharts-caption" data-z-index="4" style="color:#666666;fill:#666666;" y="397" aria-hidden="true"></text><g class="highcharts-legend highcharts-no-tooltip" data-z-index="7" transform="translate(177,359)" aria-hidden="true"><rect fill="none" class="highcharts-legend-box" rx="0" ry="0" x="0" y="0" width="336" height="26" visibility="visible"></rect><g data-z-index="1"><g><g class="highcharts-legend-item highcharts-column-series highcharts-color-0 highcharts-series-0" data-z-index="1" transform="translate(8,3)"><text x="21" style="color:#333333;cursor:pointer;font-size:12px;font-weight:bold;fill:#333333;" text-anchor="start" data-z-index="2" y="15">Tokyo</text><rect x="2" y="4" width="12" height="12" fill="#7cb5ec" rx="6" ry="6" class="highcharts-point" data-z-index="3"></rect></g><g class="highcharts-legend-item highcharts-column-series highcharts-color-1 highcharts-series-1" data-z-index="1" transform="translate(87.2421875,3)"><text x="21" y="15" style="color:#333333;cursor:pointer;font-size:12px;font-weight:bold;fill:#333333;" text-anchor="start" data-z-index="2">New York</text><rect x="2" y="4" width="12" height="12" fill="#434348" rx="6" ry="6" class="highcharts-point" data-z-index="3"></rect></g><g class="highcharts-legend-item highcharts-column-series highcharts-color-2 highcharts-series-2" data-z-index="1" transform="translate(186.59375,3)"><text x="21" y="15" style="color:#333333;cursor:pointer;font-size:12px;font-weight:bold;fill:#333333;" text-anchor="start" data-z-index="2">London</text><rect x="2" y="4" width="12" height="12" fill="#90ed7d" rx="6" ry="6" class="highcharts-point" data-z-index="3"></rect></g><g class="highcharts-legend-item highcharts-column-series highcharts-color-3 highcharts-series-3" data-z-index="1" transform="translate(272.734375,3)"><text x="21" y="15" style="color:#333333;cursor:pointer;font-size:12px;font-weight:bold;fill:#333333;" text-anchor="start" data-z-index="2">Berlin</text><rect x="2" y="4" width="12" height="12" fill="#f7a35c" rx="6" ry="6" class="highcharts-point" data-z-index="3"></rect></g></g></g></g><g class="highcharts-axis-labels highcharts-xaxis-labels" data-z-index="7" aria-hidden="true"><text x="99.25" style="color:#666666;cursor:default;font-size:11px;fill:#666666;" text-anchor="middle" transform="translate(0,0)" y="344" opacity="1">Jan</text><text x="149.75" style="color:#666666;cursor:default;font-size:11px;fill:#666666;" text-anchor="middle" transform="translate(0,0)" y="344" opacity="1">Feb</text><text x="200.25" style="color:#666666;cursor:default;font-size:11px;fill:#666666;" text-anchor="middle" transform="translate(0,0)" y="344" opacity="1">Mar</text><text x="250.75" style="color:#666666;cursor:default;font-size:11px;fill:#666666;" text-anchor="middle" transform="translate(0,0)" y="344" opacity="1">Apr</text><text x="301.25" style="color:#666666;cursor:default;font-size:11px;fill:#666666;" text-anchor="middle" transform="translate(0,0)" y="344" opacity="1">May</text><text x="351.75" style="color:#666666;cursor:default;font-size:11px;fill:#666666;" text-anchor="middle" transform="translate(0,0)" y="344" opacity="1">Jun</text><text x="402.25" style="color:#666666;cursor:default;font-size:11px;fill:#666666;" text-anchor="middle" transform="translate(0,0)" y="344" opacity="1">Jul</text><text x="452.75" style="color:#666666;cursor:default;font-size:11px;fill:#666666;" text-anchor="middle" transform="translate(0,0)" y="344" opacity="1">Aug</text><text x="503.25" style="color:#666666;cursor:default;font-size:11px;fill:#666666;" text-anchor="middle" transform="translate(0,0)" y="344" opacity="1">Sep</text><text x="553.75" style="color:#666666;cursor:default;font-size:11px;fill:#666666;" text-anchor="middle" transform="translate(0,0)" y="344" opacity="1">Oct</text><text x="604.25" style="color:#666666;cursor:default;font-size:11px;fill:#666666;" text-anchor="middle" transform="translate(0,0)" y="344" opacity="1">Nov</text><text x="654.75" style="color:#666666;cursor:default;font-size:11px;fill:#666666;" text-anchor="middle" transform="translate(0,0)" y="344" opacity="1">Dec</text></g><g class="highcharts-axis-labels highcharts-yaxis-labels" data-z-index="7" aria-hidden="true"><text x="59" style="color:#666666;cursor:default;font-size:11px;fill:#666666;" text-anchor="end" transform="translate(0,0)" y="329" opacity="1">0</text><text x="59" style="color:#666666;cursor:default;font-size:11px;fill:#666666;" text-anchor="end" transform="translate(0,0)" y="278" opacity="1">50</text><text x="59" style="color:#666666;cursor:default;font-size:11px;fill:#666666;" text-anchor="end" transform="translate(0,0)" y="227" opacity="1">100</text><text x="59" style="color:#666666;cursor:default;font-size:11px;fill:#666666;" text-anchor="end" transform="translate(0,0)" y="177" opacity="1">150</text><text x="59" style="color:#666666;cursor:default;font-size:11px;fill:#666666;" text-anchor="end" transform="translate(0,0)" y="126" opacity="1">200</text><text x="59" style="color:#666666;cursor:default;font-size:11px;fill:#666666;" text-anchor="end" transform="translate(0,0)" y="75" opacity="1">250</text></g><text x="680" class="highcharts-credits" text-anchor="end" data-z-index="8" style="cursor:pointer;color:#999999;font-size:9px;fill:#999999;" y="395" aria-label="Chart credits: Highcharts.com" aria-hidden="false">Highcharts.com</text><g class="highcharts-label highcharts-tooltip highcharts-color-0" style="cursor:default;white-space:nowrap;pointer-events:none;" data-z-index="8" transform="translate(187,-9999)" opacity="0" visibility="hidden" aria-hidden="true"><path fill="none" class="highcharts-label-box highcharts-tooltip-box highcharts-shadow" d="M 3.5 0.5 L 133.5 0.5 C 136.5 0.5 136.5 0.5 136.5 3.5 L 136.5 103.5 C 136.5 106.5 136.5 106.5 133.5 106.5 L 3.5 106.5 C 0.5 106.5 0.5 106.5 0.5 103.5 L 0.5 3.5 C 0.5 0.5 0.5 0.5 3.5 0.5" stroke="#000000" stroke-opacity="0.049999999999999996" stroke-width="5" transform="translate(1, 1)"></path><path fill="none" class="highcharts-label-box highcharts-tooltip-box highcharts-shadow" d="M 3.5 0.5 L 133.5 0.5 C 136.5 0.5 136.5 0.5 136.5 3.5 L 136.5 103.5 C 136.5 106.5 136.5 106.5 133.5 106.5 L 3.5 106.5 C 0.5 106.5 0.5 106.5 0.5 103.5 L 0.5 3.5 C 0.5 0.5 0.5 0.5 3.5 0.5" stroke="#000000" stroke-opacity="0.09999999999999999" stroke-width="3" transform="translate(1, 1)"></path><path fill="none" class="highcharts-label-box highcharts-tooltip-box highcharts-shadow" d="M 3.5 0.5 L 133.5 0.5 C 136.5 0.5 136.5 0.5 136.5 3.5 L 136.5 103.5 C 136.5 106.5 136.5 106.5 133.5 106.5 L 3.5 106.5 C 0.5 106.5 0.5 106.5 0.5 103.5 L 0.5 3.5 C 0.5 0.5 0.5 0.5 3.5 0.5" stroke="#000000" stroke-opacity="0.15" stroke-width="1" transform="translate(1, 1)"></path><path fill="rgba(247,247,247,0.85)" class="highcharts-label-box highcharts-tooltip-box" d="M 3.5 0.5 L 133.5 0.5 C 136.5 0.5 136.5 0.5 136.5 3.5 L 136.5 103.5 C 136.5 106.5 136.5 106.5 133.5 106.5 L 3.5 106.5 C 0.5 106.5 0.5 106.5 0.5 103.5 L 0.5 3.5 C 0.5 0.5 0.5 0.5 3.5 0.5" stroke="#7cb5ec" stroke-width="1"></path></g></svg>