<svg version="1.1" class="highcharts-root" style="font-family:&quot;Lucida Grande&quot;, &quot;Lucida Sans Unicode&quot;, Arial, Helvetica, sans-serif;font-size:12px;" xmlns="http://www.w3.org/2000/svg" width="230" height="230" viewBox="0 0 600 400"><desc>Created with Highcharts 9.3.3</desc><defs><clipPath id="highcharts-sew2bqb-2-"><rect x="0" y="0" width="523" height="310" fill="none"></rect></clipPath><clipPath id="highcharts-sew2bqb-8-"><rect x="0" y="0" width="523" height="310" fill="none"></rect></clipPath></defs><rect fill="#ffffff" class="highcharts-background" x="0" y="0" width="600" height="400" rx="0" ry="0"></rect><rect fill="none" class="highcharts-plot-background" x="67" y="53" width="523" height="310"></rect><g class="highcharts-grid highcharts-xaxis-grid" data-z-index="1"><path fill="none" stroke-dasharray="none" data-z-index="1" class="highcharts-grid-line" d="M 171.5 53 L 171.5 363" opacity="1"></path><path fill="none" stroke-dasharray="none" data-z-index="1" class="highcharts-grid-line" d="M 275.5 53 L 275.5 363" opacity="1"></path><path fill="none" stroke-dasharray="none" data-z-index="1" class="highcharts-grid-line" d="M 380.5 53 L 380.5 363" opacity="1"></path><path fill="none" stroke-dasharray="none" data-z-index="1" class="highcharts-grid-line" d="M 484.5 53 L 484.5 363" opacity="1"></path><path fill="none" stroke-dasharray="none" data-z-index="1" class="highcharts-grid-line" d="M 589.5 53 L 589.5 363" opacity="1"></path><path fill="none" stroke-dasharray="none" data-z-index="1" class="highcharts-grid-line" d="M 66.5 53 L 66.5 363" opacity="1"></path></g><g class="highcharts-grid highcharts-yaxis-grid" data-z-index="1"><path fill="none" stroke="#e6e6e6" stroke-width="1" stroke-dasharray="none" data-z-index="1" class="highcharts-grid-line" d="M 67 363.5 L 590 363.5" opacity="1"></path><path fill="none" stroke="#e6e6e6" stroke-width="1" stroke-dasharray="none" data-z-index="1" class="highcharts-grid-line" d="M 67 286.5 L 590 286.5" opacity="1"></path><path fill="none" stroke="#e6e6e6" stroke-width="1" stroke-dasharray="none" data-z-index="1" class="highcharts-grid-line" d="M 67 208.5 L 590 208.5" opacity="1"></path><path fill="none" stroke="#e6e6e6" stroke-width="1" stroke-dasharray="none" data-z-index="1" class="highcharts-grid-line" d="M 67 131.5 L 590 131.5" opacity="1"></path><path fill="none" stroke="#e6e6e6" stroke-width="1" stroke-dasharray="none" data-z-index="1" class="highcharts-grid-line" d="M 67 52.5 L 590 52.5" opacity="1"></path></g><rect fill="none" class="highcharts-plot-border" data-z-index="1" x="67" y="53" width="523" height="310"></rect><g class="highcharts-axis highcharts-xaxis" data-z-index="2"><path fill="none" class="highcharts-axis-line" stroke="#ccd6eb" stroke-width="1" data-z-index="7" d="M 67 363.5 L 590 363.5"></path></g><g class="highcharts-axis highcharts-yaxis" data-z-index="2"><text x="26.04443359375" data-z-index="7" text-anchor="end" transform="translate(0,0) rotate(270 26.04443359375 53)" class="highcharts-axis-title" style="color:#666666;fill:#666666;" y="53">No. of Resources(%)</text><path fill="none" class="highcharts-axis-line" data-z-index="7" d="M 67 53 L 67 363"></path></g><g class="highcharts-series-group" data-z-index="3"><g class="highcharts-series highcharts-series-0 highcharts-column-series highcharts-color-0 highcharts-tracker" data-z-index="0.1" opacity="1" transform="translate(67,53) scale(1 1)" clip-path="url(#highcharts-sew2bqb-8-)"><rect x="26.5" y="109.5" width="51" height="77" fill="#7cb5ec" stroke="#ffffff" stroke-width="1" opacity="1" class="highcharts-point highcharts-color-0"></rect><rect x="131.5" y="109.5" width="51" height="46" fill="#7cb5ec" stroke="#ffffff" stroke-width="1" opacity="1" class="highcharts-point highcharts-color-0"></rect><rect x="235.5" y="78.5" width="51" height="62" fill="#7cb5ec" stroke="#ffffff" stroke-width="1" opacity="1" class="highcharts-point highcharts-color-0"></rect><rect x="340.5" y="109.5" width="51" height="108" fill="#7cb5ec" stroke="#ffffff" stroke-width="1" opacity="1" class="highcharts-point highcharts-color-0"></rect><rect x="445.5" y="109.5" width="51" height="31" fill="#7cb5ec" stroke="#ffffff" stroke-width="1" opacity="1" class="highcharts-point highcharts-color-0"></rect></g><g class="highcharts-markers highcharts-series-0 highcharts-column-series highcharts-color-0" data-z-index="0.1" opacity="1" transform="translate(67,53) scale(1 1)" clip-path="none"></g><g class="highcharts-series highcharts-series-1 highcharts-column-series highcharts-color-1 highcharts-tracker" data-z-index="0.1" opacity="1" transform="translate(67,53) scale(1 1)" clip-path="url(#highcharts-sew2bqb-8-)"><rect x="26.5" y="186.5" width="51" height="31" fill="#434348" stroke="#ffffff" stroke-width="1" opacity="1" class="highcharts-point highcharts-color-1"></rect><rect x="131.5" y="155.5" width="51" height="31" fill="#434348" stroke="#ffffff" stroke-width="1" opacity="1" class="highcharts-point highcharts-color-1"></rect><rect x="235.5" y="140.5" width="51" height="46" fill="#434348" stroke="#ffffff" stroke-width="1" opacity="1" class="highcharts-point highcharts-color-1"></rect><rect x="340.5" y="217.5" width="51" height="31" fill="#434348" stroke="#ffffff" stroke-width="1" opacity="1" class="highcharts-point highcharts-color-1"></rect><rect x="445.5" y="140.5" width="51" height="15" fill="#434348" stroke="#ffffff" stroke-width="1" opacity="1" class="highcharts-point highcharts-color-1"></rect></g><g class="highcharts-markers highcharts-series-1 highcharts-column-series highcharts-color-1" data-z-index="0.1" opacity="1" transform="translate(67,53) scale(1 1)" clip-path="none"></g><g class="highcharts-series highcharts-series-2 highcharts-column-series highcharts-color-2 highcharts-tracker" data-z-index="0.1" opacity="1" transform="translate(67,53) scale(1 1)" clip-path="url(#highcharts-sew2bqb-8-)"><rect x="26.5" y="217.5" width="51" height="47" fill="#90ed7d" stroke="#ffffff" stroke-width="1" opacity="1" class="highcharts-point highcharts-color-2"></rect><rect x="131.5" y="186.5" width="51" height="62" fill="#90ed7d" stroke="#ffffff" stroke-width="1" opacity="1" class="highcharts-point highcharts-color-2"></rect><rect x="235.5" y="186.5" width="51" height="62" fill="#90ed7d" stroke="#ffffff" stroke-width="1" opacity="1" class="highcharts-point highcharts-color-2"></rect><rect x="340.5" y="248.5" width="51" height="31" fill="#90ed7d" stroke="#ffffff" stroke-width="1" opacity="1" class="highcharts-point highcharts-color-2"></rect><rect x="445.5" y="155.5" width="51" height="78" fill="#90ed7d" stroke="#ffffff" stroke-width="1" opacity="1" class="highcharts-point highcharts-color-2"></rect></g><g class="highcharts-markers highcharts-series-2 highcharts-column-series highcharts-color-2" data-z-index="0.1" opacity="1" transform="translate(67,53) scale(1 1)" clip-path="none"></g><g class="highcharts-series highcharts-series-3 highcharts-column-series highcharts-color-3 highcharts-tracker" data-z-index="0.1" opacity="1" transform="translate(67,53) scale(1 1)" clip-path="url(#highcharts-sew2bqb-8-)"><rect x="26.5" y="264.5" width="51" height="46" fill="#f7a35c" stroke="#ffffff" stroke-width="1" opacity="1" class="highcharts-point highcharts-color-3"></rect><rect x="131.5" y="248.5" width="51" height="62" fill="#f7a35c" stroke="#ffffff" stroke-width="1" opacity="1" class="highcharts-point highcharts-color-3"></rect><rect x="235.5" y="248.5" width="51" height="62" fill="#f7a35c" stroke="#ffffff" stroke-width="1" opacity="1" class="highcharts-point highcharts-color-3"></rect><rect x="340.5" y="279.5" width="51" height="31" fill="#f7a35c" stroke="#ffffff" stroke-width="1" opacity="1" class="highcharts-point highcharts-color-3"></rect><rect x="445.5" y="233.5" width="51" height="77" fill="#f7a35c" stroke="#ffffff" stroke-width="1" opacity="1" class="highcharts-point highcharts-color-3"></rect></g><g class="highcharts-markers highcharts-series-3 highcharts-column-series highcharts-color-3" data-z-index="0.1" opacity="1" transform="translate(67,53) scale(1 1)" clip-path="none"></g></g><text x="300" text-anchor="middle" class="highcharts-subtitle" data-z-index="4" style="color:#666666;fill:#666666;" y="52"></text><text x="10" text-anchor="start" class="highcharts-caption" data-z-index="4" style="color:#666666;fill:#666666;" y="397"></text><g class="highcharts-data-labels highcharts-series-0 highcharts-column-series highcharts-color-0 highcharts-tracker" data-z-index="6" opacity="1" transform="translate(67,53) scale(1 1)"><g class="highcharts-label highcharts-data-label highcharts-data-label-color-0" data-z-index="1" transform="translate(44,136)"><text x="5" data-z-index="1" y="16" style="color:#000000;font-size:11px;font-weight:bold;fill:#000000;"><tspan class="highcharts-text-outline" fill="#FFFFFF" stroke="#FFFFFF" stroke-width="2px" stroke-linejoin="round" style="">5</tspan>5</text></g><g class="highcharts-label highcharts-data-label highcharts-data-label-color-0" data-z-index="1" transform="translate(149,121)"><text x="5" data-z-index="1" y="16" style="color:#000000;font-size:11px;font-weight:bold;fill:#000000;"><tspan class="highcharts-text-outline" fill="#FFFFFF" stroke="#FFFFFF" stroke-width="2px" stroke-linejoin="round">3</tspan>3</text></g><g class="highcharts-label highcharts-data-label highcharts-data-label-color-0" data-z-index="1" transform="translate(253,98)"><text x="5" data-z-index="1" y="16" style="color:#000000;font-size:11px;font-weight:bold;fill:#000000;"><tspan class="highcharts-text-outline" fill="#FFFFFF" stroke="#FFFFFF" stroke-width="2px" stroke-linejoin="round">4</tspan>4</text></g><g class="highcharts-label highcharts-data-label highcharts-data-label-color-0" data-z-index="1" transform="translate(358,152)"><text x="5" data-z-index="1" y="16" style="color:#000000;font-size:11px;font-weight:bold;fill:#000000;"><tspan class="highcharts-text-outline" fill="#FFFFFF" stroke="#FFFFFF" stroke-width="2px" stroke-linejoin="round">7</tspan>7</text></g><g class="highcharts-label highcharts-data-label highcharts-data-label-color-0" data-z-index="1" transform="translate(463,113)"><text x="5" data-z-index="1" y="16" style="color:#000000;font-size:11px;font-weight:bold;fill:#000000;"><tspan class="highcharts-text-outline" fill="#FFFFFF" stroke="#FFFFFF" stroke-width="2px" stroke-linejoin="round">2</tspan>2</text></g></g><g class="highcharts-data-labels highcharts-series-1 highcharts-column-series highcharts-color-1 highcharts-tracker" data-z-index="6" opacity="1" transform="translate(67,53) scale(1 1)"><g class="highcharts-label highcharts-data-label highcharts-data-label-color-1" data-z-index="1" transform="translate(44,190)"><text x="5" data-z-index="1" y="16" style="color:#FFFFFF;font-size:11px;font-weight:bold;fill:#FFFFFF;"><tspan class="highcharts-text-outline" fill="#000000" stroke="#000000" stroke-width="2px" stroke-linejoin="round">2</tspan>2</text></g><g class="highcharts-label highcharts-data-label highcharts-data-label-color-1" data-z-index="1" transform="translate(149,159)"><text x="5" data-z-index="1" y="16" style="color:#FFFFFF;font-size:11px;font-weight:bold;fill:#FFFFFF;"><tspan class="highcharts-text-outline" fill="#000000" stroke="#000000" stroke-width="2px" stroke-linejoin="round">2</tspan>2</text></g><g class="highcharts-label highcharts-data-label highcharts-data-label-color-1" data-z-index="1" transform="translate(253,152)"><text x="5" data-z-index="1" y="16" style="color:#FFFFFF;font-size:11px;font-weight:bold;fill:#FFFFFF;"><tspan class="highcharts-text-outline" fill="#000000" stroke="#000000" stroke-width="2px" stroke-linejoin="round">3</tspan>3</text></g><g class="highcharts-label highcharts-data-label highcharts-data-label-color-1" data-z-index="1" transform="translate(358,221)"><text x="5" data-z-index="1" y="16" style="color:#FFFFFF;font-size:11px;font-weight:bold;fill:#FFFFFF;"><tspan class="highcharts-text-outline" fill="#000000" stroke="#000000" stroke-width="2px" stroke-linejoin="round">2</tspan>2</text></g><g class="highcharts-label highcharts-data-label highcharts-data-label-color-1" data-z-index="1" transform="translate(463,136)"><text x="5" data-z-index="1" y="16" style="color:#FFFFFF;font-size:11px;font-weight:bold;fill:#FFFFFF;"><tspan class="highcharts-text-outline" fill="#000000" stroke="#000000" stroke-width="2px" stroke-linejoin="round">1</tspan>1</text></g></g><g class="highcharts-data-labels highcharts-series-2 highcharts-column-series highcharts-color-2 highcharts-tracker" data-z-index="6" opacity="1" transform="translate(67,53) scale(1 1)"><g class="highcharts-label highcharts-data-label highcharts-data-label-color-2" data-z-index="1" transform="translate(44,229)"><text x="5" data-z-index="1" y="16" style="color:#000000;font-size:11px;font-weight:bold;fill:#000000;"><tspan class="highcharts-text-outline" fill="#FFFFFF" stroke="#FFFFFF" stroke-width="2px" stroke-linejoin="round">3</tspan>3</text></g><g class="highcharts-label highcharts-data-label highcharts-data-label-color-2" data-z-index="1" transform="translate(149,206)"><text x="5" data-z-index="1" y="16" style="color:#000000;font-size:11px;font-weight:bold;fill:#000000;"><tspan class="highcharts-text-outline" fill="#FFFFFF" stroke="#FFFFFF" stroke-width="2px" stroke-linejoin="round">4</tspan>4</text></g><g class="highcharts-label highcharts-data-label highcharts-data-label-color-2" data-z-index="1" transform="translate(253,206)"><text x="5" data-z-index="1" y="16" style="color:#000000;font-size:11px;font-weight:bold;fill:#000000;"><tspan class="highcharts-text-outline" fill="#FFFFFF" stroke="#FFFFFF" stroke-width="2px" stroke-linejoin="round">4</tspan>4</text></g><g class="highcharts-label highcharts-data-label highcharts-data-label-color-2" data-z-index="1" transform="translate(358,252)"><text x="5" data-z-index="1" y="16" style="color:#000000;font-size:11px;font-weight:bold;fill:#000000;"><tspan class="highcharts-text-outline" fill="#FFFFFF" stroke="#FFFFFF" stroke-width="2px" stroke-linejoin="round">2</tspan>2</text></g><g class="highcharts-label highcharts-data-label highcharts-data-label-color-2" data-z-index="1" transform="translate(463,183)"><text x="5" data-z-index="1" y="16" style="color:#000000;font-size:11px;font-weight:bold;fill:#000000;"><tspan class="highcharts-text-outline" fill="#FFFFFF" stroke="#FFFFFF" stroke-width="2px" stroke-linejoin="round">5</tspan>5</text></g></g><g class="highcharts-data-labels highcharts-series-3 highcharts-column-series highcharts-color-3 highcharts-tracker" data-z-index="6" opacity="1" transform="translate(67,53) scale(1 1)"><g class="highcharts-label highcharts-data-label highcharts-data-label-color-3" data-z-index="1" transform="translate(44,275)"><text x="5" data-z-index="1" y="16" style="color:#000000;font-size:11px;font-weight:bold;fill:#000000;"><tspan class="highcharts-text-outline" fill="#FFFFFF" stroke="#FFFFFF" stroke-width="2px" stroke-linejoin="round">3</tspan>3</text></g><g class="highcharts-label highcharts-data-label highcharts-data-label-color-3" data-z-index="1" transform="translate(149,267)"><text x="5" data-z-index="1" y="16" style="color:#000000;font-size:11px;font-weight:bold;fill:#000000;"><tspan class="highcharts-text-outline" fill="#FFFFFF" stroke="#FFFFFF" stroke-width="2px" stroke-linejoin="round">4</tspan>4</text></g><g class="highcharts-label highcharts-data-label highcharts-data-label-color-3" data-z-index="1" transform="translate(253,267)"><text x="5" data-z-index="1" y="16" style="color:#000000;font-size:11px;font-weight:bold;fill:#000000;"><tspan class="highcharts-text-outline" fill="#FFFFFF" stroke="#FFFFFF" stroke-width="2px" stroke-linejoin="round">4</tspan>4</text></g><g class="highcharts-label highcharts-data-label highcharts-data-label-color-3" data-z-index="1" transform="translate(358,283)"><text x="5" data-z-index="1" y="16" style="color:#000000;font-size:11px;font-weight:bold;fill:#000000;"><tspan class="highcharts-text-outline" fill="#FFFFFF" stroke="#FFFFFF" stroke-width="2px" stroke-linejoin="round">2</tspan>2</text></g><g class="highcharts-label highcharts-data-label highcharts-data-label-color-3" data-z-index="1" transform="translate(463,260)"><text x="5" data-z-index="1" y="16" style="color:#000000;font-size:11px;font-weight:bold;fill:#000000;"><tspan class="highcharts-text-outline" fill="#FFFFFF" stroke="#FFFFFF" stroke-width="2px" stroke-linejoin="round">5</tspan>5</text></g></g><g class="highcharts-legend highcharts-no-tooltip" data-z-index="7" transform="translate(260,110)"><rect fill="none" class="highcharts-legend-box highcharts-shadow" rx="0" ry="0" stroke="#000000" stroke-width="5" stroke-opacity="0.049999999999999996" transform="translate(1, 1)" x="0.5" y="0.5" width="125" height="70" visibility="visible"></rect><rect fill="none" class="highcharts-legend-box highcharts-shadow" rx="0" ry="0" stroke="#000000" stroke-width="3" stroke-opacity="0.09999999999999999" transform="translate(1, 1)" x="0.5" y="0.5" width="125" height="70" visibility="visible"></rect><rect fill="none" class="highcharts-legend-box highcharts-shadow" rx="0" ry="0" stroke="#000000" stroke-width="1" stroke-opacity="0.15" transform="translate(1, 1)" x="0.5" y="0.5" width="125" height="70" visibility="visible"></rect><rect fill="#FFFFFF" class="highcharts-legend-box" rx="0" ry="0" stroke="#999999" stroke-width="1" x="0.5" y="0.5" width="125" height="70" visibility="visible"></rect><g data-z-index="1"><g><g class="highcharts-legend-item highcharts-column-series highcharts-color-0 highcharts-series-0" data-z-index="1" transform="translate(8,3)"><text x="21" style="color:#333333;cursor:pointer;font-size:12px;font-weight:bold;fill:#333333;" text-anchor="start" data-z-index="2" y="15">Tech Mahindra</text><rect x="2" y="4" width="12" height="12" fill="#7cb5ec" rx="6" ry="6" class="highcharts-point" data-z-index="3"></rect></g><g class="highcharts-legend-item highcharts-column-series highcharts-color-1 highcharts-series-1" data-z-index="1" transform="translate(8,18)"><text x="21" y="15" style="color:#333333;cursor:pointer;font-size:12px;font-weight:bold;fill:#333333;" text-anchor="start" data-z-index="2">TCS</text><rect x="2" y="4" width="12" height="12" fill="#434348" rx="6" ry="6" class="highcharts-point" data-z-index="3"></rect></g><g class="highcharts-legend-item highcharts-column-series highcharts-color-2 highcharts-series-2" data-z-index="1" transform="translate(8,33)"><text x="21" y="15" style="color:#333333;cursor:pointer;font-size:12px;font-weight:bold;fill:#333333;" text-anchor="start" data-z-index="2">Infosys</text><rect x="2" y="4" width="12" height="12" fill="#90ed7d" rx="6" ry="6" class="highcharts-point" data-z-index="3"></rect></g><g class="highcharts-legend-item highcharts-column-series highcharts-color-3 highcharts-series-3" data-z-index="1" transform="translate(8,48)"><text x="21" y="15" style="color:#333333;cursor:pointer;font-size:12px;font-weight:bold;fill:#333333;" text-anchor="start" data-z-index="2">Accenture</text><rect x="2" y="4" width="12" height="12" fill="#f7a35c" rx="6" ry="6" class="highcharts-point" data-z-index="3"></rect></g></g></g></g><g class="highcharts-axis-labels highcharts-xaxis-labels" data-z-index="7"><text x="119.3" style="color:#666666;cursor:default;font-size:11px;fill:#666666;" text-anchor="middle" transform="translate(0,0)" y="382" opacity="1">Java</text><text x="223.89999999999998" style="color:#666666;cursor:default;font-size:11px;fill:#666666;" text-anchor="middle" transform="translate(0,0)" y="382" opacity="1">UI</text><text x="328.5" style="color:#666666;cursor:default;font-size:11px;fill:#666666;" text-anchor="middle" transform="translate(0,0)" y="382" opacity="1">Scrum</text><text x="433.09999999999997" style="color:#666666;cursor:default;font-size:11px;fill:#666666;" text-anchor="middle" transform="translate(0,0)" y="382" opacity="1">Support</text><text x="537.7" style="color:#666666;cursor:default;font-size:11px;fill:#666666;" text-anchor="middle" transform="translate(0,0)" y="382" opacity="1">Others</text></g><g class="highcharts-axis-labels highcharts-yaxis-labels" data-z-index="7"><text x="52" style="color:#666666;cursor:default;font-size:11px;fill:#666666;" text-anchor="end" transform="translate(0,0)" y="367" opacity="1">0</text><text x="52" style="color:#666666;cursor:default;font-size:11px;fill:#666666;" text-anchor="end" transform="translate(0,0)" y="290" opacity="1">5</text><text x="52" style="color:#666666;cursor:default;font-size:11px;fill:#666666;" text-anchor="end" transform="translate(0,0)" y="212" opacity="1">10</text><text x="52" style="color:#666666;cursor:default;font-size:11px;fill:#666666;" text-anchor="end" transform="translate(0,0)" y="135" opacity="1">15</text><text x="52" style="color:#666666;cursor:default;font-size:11px;fill:#666666;" text-anchor="end" transform="translate(0,0)" y="57" opacity="1">20</text></g><g class="highcharts-label highcharts-tooltip highcharts-color-2" style="cursor:default;white-space:nowrap;pointer-events:none;" data-z-index="8" transform="translate(495,155)" opacity="0" visibility="visible"><path fill="none" class="highcharts-label-box highcharts-tooltip-box highcharts-shadow" d="M 3.5 0.5 L 83.5 0.5 C 86.5 0.5 86.5 0.5 86.5 3.5 L 86.5 44.5 C 86.5 47.5 86.5 47.5 83.5 47.5 L 48.5 47.5 L 42.5 53.5 L 36.5 47.5 L 3.5 47.5 C 0.5 47.5 0.5 47.5 0.5 44.5 L 0.5 3.5 C 0.5 0.5 0.5 0.5 3.5 0.5" stroke="#000000" stroke-opacity="0.049999999999999996" stroke-width="5" transform="translate(1, 1)"></path><path fill="none" class="highcharts-label-box highcharts-tooltip-box highcharts-shadow" d="M 3.5 0.5 L 83.5 0.5 C 86.5 0.5 86.5 0.5 86.5 3.5 L 86.5 44.5 C 86.5 47.5 86.5 47.5 83.5 47.5 L 48.5 47.5 L 42.5 53.5 L 36.5 47.5 L 3.5 47.5 C 0.5 47.5 0.5 47.5 0.5 44.5 L 0.5 3.5 C 0.5 0.5 0.5 0.5 3.5 0.5" stroke="#000000" stroke-opacity="0.09999999999999999" stroke-width="3" transform="translate(1, 1)"></path><path fill="none" class="highcharts-label-box highcharts-tooltip-box highcharts-shadow" d="M 3.5 0.5 L 83.5 0.5 C 86.5 0.5 86.5 0.5 86.5 3.5 L 86.5 44.5 C 86.5 47.5 86.5 47.5 83.5 47.5 L 48.5 47.5 L 42.5 53.5 L 36.5 47.5 L 3.5 47.5 C 0.5 47.5 0.5 47.5 0.5 44.5 L 0.5 3.5 C 0.5 0.5 0.5 0.5 3.5 0.5" stroke="#000000" stroke-opacity="0.15" stroke-width="1" transform="translate(1, 1)"></path><path fill="rgba(247,247,247,0.85)" class="highcharts-label-box highcharts-tooltip-box" d="M 3.5 0.5 L 83.5 0.5 C 86.5 0.5 86.5 0.5 86.5 3.5 L 86.5 44.5 C 86.5 47.5 86.5 47.5 83.5 47.5 L 48.5 47.5 L 42.5 53.5 L 36.5 47.5 L 3.5 47.5 C 0.5 47.5 0.5 47.5 0.5 44.5 L 0.5 3.5 C 0.5 0.5 0.5 0.5 3.5 0.5" stroke="#90ed7d" stroke-width="1"></path><text x="8" data-z-index="1" y="18" style="color:#333333;font-size:12px;fill:#333333;"><tspan style="font-size: 10px">Others</tspan><tspan style="fill:#90ed7d">●</tspan> Infosys: <tspan style="font-weight:bold;">5</tspan></text></g></svg>